<?xml version="1.0" encoding="iso-8859-1"?>
<!-- Generator: Adobe Illustrator 18.1.1, SVG Export Plug-In . SVG Version: 6.00 Build 0)  -->
<svg version="1.1" id="Capa_1" xmlns="http://www.w3.org/2000/svg" xmlns:xlink="http://www.w3.org/1999/xlink" x="0px" y="0px"
	 viewBox="0 0 612 612" style="enable-background:new 0 0 612 612;" xml:space="preserve">
<g>
	<g>
		<path d="M18.897,531.442H138.9c10.436,0,18.897-8.46,18.897-18.897V114.136c0-10.436-8.461-18.897-18.897-18.897H18.897
			C8.46,95.239,0,103.7,0,114.136v398.409C0,522.981,8.46,531.442,18.897,531.442z M33.287,130.015h91.223v174.103H33.287V130.015z
			 M78.898,401.381c27.586,0,49.95,22.363,49.95,49.95c0,27.586-22.363,49.95-49.95,49.95s-49.95-22.363-49.95-49.95
			C28.949,423.744,51.312,401.381,78.898,401.381z"/>
		<path d="M322.832,531.442c10.436,0,18.897-8.46,18.897-18.897V114.136c0-10.436-8.461-18.897-18.897-18.897H202.829
			c-10.437,0-18.897,8.461-18.897,18.897v398.409c0,10.437,8.46,18.897,18.897,18.897H322.832z M217.219,130.015h91.223v174.103
			h-91.223V130.015z M262.83,401.381c27.586,0,49.95,22.363,49.95,49.95c0,27.586-22.363,49.95-49.95,49.95
			c-27.586,0-49.95-22.363-49.95-49.95C212.881,423.744,235.244,401.381,262.83,401.381z"/>
		<path d="M516.978,93.768c-2.475-10.139-12.701-16.352-22.839-13.877l-116.58,28.457c-10.139,2.475-16.352,12.7-13.877,22.839
			l94.478,387.045c2.475,10.139,12.701,16.352,22.839,13.877l116.58-28.457c10.139-2.475,16.352-12.7,13.877-22.839L516.978,93.768z
			 M441.071,307.857l-41.286-169.136l88.621-21.633l41.286,169.136L441.071,307.857z M532.137,488.579
			c-26.799,6.542-53.828-9.88-60.369-36.679c-6.542-26.799,9.88-53.828,36.679-60.369s53.828,9.88,60.369,36.679
			C575.359,455.009,558.937,482.038,532.137,488.579z"/>
	</g>
</g>
<g>
</g>
<g>
</g>
<g>
</g>
<g>
</g>
<g>
</g>
<g>
</g>
<g>
</g>
<g>
</g>
<g>
</g>
<g>
</g>
<g>
</g>
<g>
</g>
<g>
</g>
<g>
</g>
<g>
</g>
</svg>
